<svg xmlns="http://www.w3.org/2000/svg" id="Laag_1" version="1.1" viewBox="0 0 1303 540.5"><defs><style>.st1{fill:none;stroke:#000;stroke-miterlimit:10;stroke-width:2px}</style></defs><path d="M0 7.5h1303v630H0z" style="fill:none"/><path d="M199.6 7.5c15.48 0 28.68 5.46 39.59 16.37 10.91 10.91 16.37 23.8 16.37 38.66s-5.46 27.75-16.37 38.66c-10.91 10.91-24.11 16.37-39.59 16.37h-27.98c-5.16 0-9.56-1.82-13.2-5.46-3.64-3.64-5.46-8.03-5.46-13.2V26.15c0-5.16 1.82-9.56 5.46-13.2 3.64-3.64 8.03-5.46 13.2-5.46h27.98Zm0 72.74c5.16 0 9.56-1.66 13.2-4.99 3.64-3.33 5.46-7.57 5.46-12.73s-1.82-9.4-5.46-12.73c-3.64-3.33-8.04-4.99-13.2-4.99h-9.33v35.44h9.33ZM301.26 49.47h13.99c3.6 0 6.53 1.27 8.77 3.82 2.24 2.55 3.36 5.63 3.36 9.23s-1.12 6.68-3.36 9.23c-2.24 2.55-5.16 3.82-8.77 3.82h-13.99v4.66h18.65c5.16 0 9.56 1.82 13.2 5.46 3.64 3.64 5.46 8.04 5.46 13.2s-1.82 9.56-5.46 13.2c-3.64 3.64-8.04 5.46-13.2 5.46h-37.3c-5.16 0-9.56-1.82-13.2-5.46-3.64-3.64-5.46-8.03-5.46-13.2V26.15c0-5.16 1.82-9.56 5.46-13.2 3.64-3.64 8.03-5.46 13.2-5.46h37.3c5.16 0 9.56 1.82 13.2 5.46 3.64 3.64 5.46 8.04 5.46 13.2s-1.82 9.56-5.46 13.2c-3.64 3.64-8.04 5.46-13.2 5.46h-18.65v4.66ZM384.35 99.83l-3.54 8.58c-2.36 4.54-6 7.59-10.91 9.14-4.91 1.55-9.67 1.15-14.27-1.21-4.54-2.42-7.59-6.09-9.14-11-1.55-4.91-1.15-9.64 1.21-14.18l37.86-74.52c3.05-6.71 8.61-10.07 16.69-10.07s13.74 3.36 16.79 10.07l37.77 74.52c2.42 4.54 2.86 9.27 1.31 14.18-1.55 4.91-4.63 8.58-9.23 11-4.54 2.36-9.27 2.77-14.18 1.21-4.91-1.55-8.55-4.6-10.91-9.14l-3.54-8.58h-35.91Zm24.25-27.98-6.34-15.11-6.25 15.11h12.59ZM504.29 85v14.83c0 5.16-1.82 9.56-5.46 13.2-3.64 3.64-8.04 5.46-13.2 5.46s-9.56-1.82-13.2-5.46c-3.64-3.64-5.46-8.03-5.46-13.2V26.15c0-5.16 1.82-9.56 5.46-13.2 3.64-3.64 8.03-5.46 13.2-5.46h27.98c10.32 0 19.12 3.64 26.39 10.91s10.91 16.07 10.91 26.39-3.64 19.12-10.91 26.39c-.81.81-1.62 1.55-2.42 2.24l11.38 15.2c3.11 4.1 4.3 8.71 3.59 13.8-.72 5.1-3.12 9.2-7.23 12.31-4.17 3.05-8.8 4.21-13.9 3.5s-9.17-3.12-12.22-7.23l-14.92-26.02Zm3.73-32.73c2.05 0 3.81-.73 5.27-2.19 1.46-1.46 2.19-3.22 2.19-5.27s-.73-3.81-2.19-5.27c-1.46-1.46-3.22-2.19-5.27-2.19h-3.73v14.92h3.73ZM688.48 107.66l-10.07-27.79-10.07 27.79c-2.49 7.21-8.15 10.82-16.97 10.82s-14.49-3.6-16.97-10.82l-27.61-76.01c-1.8-4.85-1.62-9.61.56-14.27s5.69-7.86 10.54-9.61c4.85-1.8 9.61-1.62 14.27.56s7.86 5.69 9.61 10.54l9.61 26.3 10.07-27.79c3.73-7.21 9.39-10.82 16.97-10.82s13.24 3.61 16.97 10.82l10.07 27.79 9.61-26.3c1.74-4.85 4.94-8.36 9.61-10.54 4.66-2.18 9.42-2.36 14.27-.56 4.85 1.74 8.36 4.94 10.54 9.61s2.39 9.42.65 14.27l-27.7 76.01c-2.49 7.21-8.15 10.82-16.97 10.82s-14.49-3.6-16.97-10.82ZM807.76 118.48c-15.48 0-28.68-5.46-39.59-16.37C757.26 91.2 751.8 78 751.8 62.52s5.46-28.68 16.37-39.59c10.91-10.91 24.11-16.37 39.59-16.37s28.68 5.46 39.59 16.37c10.91 10.91 16.37 24.11 16.37 39.59s-5.46 28.68-16.37 39.59c-10.91 10.91-24.11 16.37-39.59 16.37Zm13.2-42.76c3.64-3.64 5.46-8.03 5.46-13.2s-1.82-9.56-5.46-13.2c-3.64-3.64-8.04-5.46-13.2-5.46s-9.56 1.82-13.2 5.46c-3.64 3.64-5.46 8.04-5.46 13.2s1.82 9.56 5.46 13.2c3.64 3.64 8.04 5.46 13.2 5.46s9.56-1.82 13.2-5.46ZM909.42 85v14.83c0 5.16-1.82 9.56-5.46 13.2-3.64 3.64-8.04 5.46-13.2 5.46s-9.56-1.82-13.2-5.46c-3.64-3.64-5.46-8.03-5.46-13.2V26.15c0-5.16 1.82-9.56 5.46-13.2 3.64-3.64 8.04-5.46 13.2-5.46h27.98c10.32 0 19.12 3.64 26.39 10.91s10.91 16.07 10.91 26.39-3.64 19.12-10.91 26.39c-.81.81-1.62 1.55-2.43 2.24l11.38 15.2c3.11 4.1 4.3 8.71 3.59 13.8-.71 5.1-3.12 9.2-7.23 12.31-4.17 3.05-8.8 4.21-13.9 3.5s-9.17-3.12-12.22-7.23L909.4 84.98Zm3.73-32.73c2.05 0 3.81-.73 5.27-2.19 1.46-1.46 2.19-3.22 2.19-5.27s-.73-3.81-2.19-5.27c-1.46-1.46-3.22-2.19-5.27-2.19h-3.73v14.92h3.73ZM984.03 117.55c-5.16 0-9.56-1.82-13.2-5.46-3.64-3.64-5.46-8.03-5.46-13.2V25.22c0-5.16 1.82-9.56 5.46-13.2 3.64-3.64 8.04-5.46 13.2-5.46s9.56 1.82 13.2 5.46c3.64 3.64 5.46 8.04 5.46 13.2v55.02h18.65c5.16 0 9.56 1.82 13.2 5.46 3.64 3.64 5.46 8.04 5.46 13.2s-1.82 9.56-5.46 13.2c-3.64 3.64-8.04 5.46-13.2 5.46h-37.3ZM1095.01 7.5c15.48 0 28.68 5.46 39.59 16.37 10.91 10.91 16.37 23.8 16.37 38.66s-5.46 27.75-16.37 38.66c-10.91 10.91-24.11 16.37-39.59 16.37h-27.98c-5.16 0-9.56-1.82-13.2-5.46-3.64-3.64-5.46-8.03-5.46-13.2V26.15c0-5.16 1.82-9.56 5.46-13.2 3.64-3.64 8.04-5.46 13.2-5.46h27.98Zm0 72.74c5.16 0 9.56-1.66 13.2-4.99 3.64-3.33 5.46-7.57 5.46-12.73s-1.82-9.4-5.46-12.73c-3.64-3.33-8.04-4.99-13.2-4.99h-9.33v35.44h9.33ZM25.48 253.55c-5.16 0-9.56-1.82-13.2-5.46-3.64-3.64-5.46-8.03-5.46-13.2v-73.68c0-5.16 1.82-9.56 5.46-13.2 3.64-3.64 8.03-5.46 13.2-5.46s9.56 1.82 13.2 5.46c3.64 3.64 5.46 8.04 5.46 13.2v55.02h18.65c5.16 0 9.56 1.82 13.2 5.46 3.64 3.64 5.46 8.04 5.46 13.2s-1.82 9.56-5.46 13.2c-3.64 3.64-8.04 5.46-13.2 5.46H25.48ZM127.14 185.47h13.99c3.6 0 6.53 1.27 8.77 3.82 2.24 2.55 3.36 5.63 3.36 9.23s-1.12 6.68-3.36 9.23c-2.24 2.55-5.16 3.82-8.77 3.82h-13.99v4.66h18.65c5.16 0 9.56 1.82 13.2 5.46 3.64 3.64 5.46 8.04 5.46 13.2s-1.82 9.56-5.46 13.2c-3.64 3.64-8.04 5.46-13.2 5.46h-37.3c-5.16 0-9.56-1.82-13.2-5.46-3.64-3.64-5.46-8.03-5.46-13.2v-72.74c0-5.16 1.82-9.56 5.46-13.2 3.64-3.64 8.03-5.46 13.2-5.46h37.3c5.16 0 9.56 1.82 13.2 5.46 3.64 3.64 5.46 8.04 5.46 13.2s-1.82 9.56-5.46 13.2c-3.64 3.64-8.04 5.46-13.2 5.46h-18.65v4.66ZM210.23 235.83l-3.54 8.58c-2.36 4.54-6 7.59-10.91 9.14-4.91 1.55-9.67 1.15-14.27-1.21-4.54-2.42-7.59-6.09-9.14-11-1.55-4.91-1.15-9.64 1.21-14.18l37.86-74.52c3.05-6.71 8.61-10.07 16.69-10.07s13.74 3.36 16.79 10.07l37.77 74.52c2.42 4.54 2.86 9.27 1.31 14.18-1.55 4.91-4.63 8.58-9.23 11-4.54 2.36-9.27 2.77-14.18 1.21-4.91-1.55-8.55-4.6-10.91-9.14l-3.54-8.58h-35.91Zm24.25-27.98-6.34-15.11-6.25 15.11h12.59ZM339.49 143.5c15.48 0 28.68 5.46 39.59 16.37 10.91 10.91 16.37 23.8 16.37 38.66s-5.46 27.75-16.37 38.66c-10.91 10.91-24.11 16.37-39.59 16.37h-27.98c-5.16 0-9.56-1.82-13.2-5.46-3.64-3.64-5.46-8.03-5.46-13.2v-72.74c0-5.16 1.82-9.56 5.46-13.2 3.64-3.64 8.03-5.46 13.2-5.46h27.98Zm0 72.74c5.16 0 9.56-1.66 13.2-4.99 3.64-3.33 5.46-7.57 5.46-12.73s-1.82-9.4-5.46-12.73c-3.64-3.33-8.04-4.99-13.2-4.99h-9.33v35.44h9.33ZM441.15 185.47h13.99c3.6 0 6.53 1.27 8.77 3.82 2.24 2.55 3.36 5.63 3.36 9.23s-1.12 6.68-3.36 9.23c-2.24 2.55-5.16 3.82-8.77 3.82h-13.99v4.66h18.65c5.16 0 9.56 1.82 13.2 5.46 3.64 3.64 5.46 8.04 5.46 13.2s-1.82 9.56-5.46 13.2c-3.64 3.64-8.04 5.46-13.2 5.46h-37.3c-5.16 0-9.56-1.82-13.2-5.46-3.64-3.64-5.46-8.03-5.46-13.2v-72.74c0-5.16 1.82-9.56 5.46-13.2 3.64-3.64 8.03-5.46 13.2-5.46h37.3c5.16 0 9.56 1.82 13.2 5.46 3.64 3.64 5.46 8.04 5.46 13.2s-1.82 9.56-5.46 13.2c-3.64 3.64-8.04 5.46-13.2 5.46h-18.65v4.66ZM524.15 221v14.83c0 5.16-1.82 9.56-5.46 13.2-3.64 3.64-8.04 5.46-13.2 5.46s-9.56-1.82-13.2-5.46c-3.64-3.64-5.46-8.03-5.46-13.2v-73.68c0-5.16 1.82-9.56 5.46-13.2 3.64-3.64 8.03-5.46 13.2-5.46h27.98c10.32 0 19.12 3.64 26.39 10.91s10.91 16.07 10.91 26.39-3.64 19.12-10.91 26.39c-.81.81-1.62 1.55-2.42 2.24l11.38 15.2c3.11 4.1 4.3 8.71 3.59 13.8-.72 5.1-3.12 9.2-7.23 12.31-4.17 3.05-8.8 4.21-13.9 3.5s-9.17-3.12-12.22-7.23l-14.92-26.02Zm3.73-32.73c2.05 0 3.81-.73 5.27-2.19 1.46-1.46 2.19-3.22 2.19-5.27s-.73-3.81-2.19-5.27c-1.46-1.46-3.22-2.19-5.27-2.19h-3.73v14.92h3.73ZM587.9 247.63c-5.81-4.57-8.72-9.43-8.72-14.6s1.82-9.56 5.46-13.2c3.64-3.64 8.03-5.46 13.2-5.46 4.72 0 8.27 1.24 10.63 3.73 2.36 2.49 5.13 3.81 8.3 3.96 3.17.16 5-.62 5.5-2.33s-2.92-3.96-10.26-6.76-14.33-6.44-20.98-10.91c-6.65-4.48-9.98-11.88-9.98-22.2s3.64-19.12 10.91-26.39 15.76-10.91 25.46-10.91 17.95 2.13 25.32 6.39c7.37 4.26 11.05 8.97 11.05 14.13s-1.82 9.56-5.46 13.2c-3.64 3.64-8.04 5.46-13.2 5.46-4.73 0-7.96-1.09-9.7-3.26-1.74-2.18-3.89-3.34-6.44-3.5-2.55-.15-4.07.62-4.57 2.33s2.3 3.81 8.39 6.29c6.09 2.49 13.09 5.97 20.98 10.45 7.9 4.48 11.84 12.19 11.84 23.13 0 10.32-3.64 19.12-10.91 26.39s-16.69 10.91-28.26 10.91c-13.24 0-22.77-2.29-28.58-6.85ZM677.85 251.87c-5.72-1.24-9.45-4.65-11.19-10.21-1.74-5.56-1.3-10.59 1.31-15.06 2.55-4.48 6.33-7.38 11.33-8.72 5-1.34 9.75-.73 14.22 1.82 4.48 2.61 7.38 6.42 8.72 11.42 1.34 5.01.7 9.75-1.91 14.22l-10.17 17.63c-1.18 1.99-2.88 3.28-5.08 3.87-2.21.59-4.31.29-6.29-.89-1.99-1.12-3.28-2.8-3.87-5.04-.59-2.24-.33-4.35.79-6.34l2.14-2.7ZM797.5 235.83c0 5.16-1.82 9.56-5.46 13.2-3.64 3.64-8.04 5.46-13.2 5.46s-9.56-1.82-13.2-5.46c-3.64-3.64-5.46-8.03-5.46-13.2v-73.68c0-5.16 1.82-9.56 5.46-13.2 3.64-3.64 8.04-5.46 13.2-5.46h27.98c10.32 0 19.12 3.64 26.39 10.91s10.91 16.07 10.91 26.39-3.64 19.12-10.91 26.39c-7.28 7.27-16.07 10.91-26.39 10.91h-9.33v17.72Zm3.73-47.56c2.05 0 3.81-.73 5.27-2.19 1.46-1.46 2.19-3.22 2.19-5.27s-.73-3.81-2.19-5.27c-1.46-1.46-3.22-2.19-5.27-2.19h-3.73v14.92h3.73ZM871.18 253.55c-5.16 0-9.56-1.82-13.2-5.46-3.64-3.64-5.46-8.03-5.46-13.2v-73.68c0-5.16 1.82-9.56 5.46-13.2 3.64-3.64 8.04-5.46 13.2-5.46s9.56 1.82 13.2 5.46c3.64 3.64 5.46 8.04 5.46 13.2v55.02h18.65c5.16 0 9.56 1.82 13.2 5.46 3.64 3.64 5.46 8.04 5.46 13.2s-1.82 9.56-5.46 13.2c-3.64 3.64-8.04 5.46-13.2 5.46h-37.3ZM972.83 185.47h13.99c3.61 0 6.53 1.27 8.77 3.82 2.24 2.55 3.36 5.63 3.36 9.23s-1.12 6.68-3.36 9.23c-2.24 2.55-5.16 3.82-8.77 3.82h-13.99v4.66h18.65c5.16 0 9.56 1.82 13.2 5.46 3.64 3.64 5.46 8.04 5.46 13.2s-1.82 9.56-5.46 13.2c-3.64 3.64-8.04 5.46-13.2 5.46h-37.3c-5.16 0-9.56-1.82-13.2-5.46-3.64-3.64-5.46-8.03-5.46-13.2v-72.74c0-5.16 1.82-9.56 5.46-13.2 3.64-3.64 8.04-5.46 13.2-5.46h37.3c5.16 0 9.56 1.82 13.2 5.46 3.64 3.64 5.46 8.04 5.46 13.2s-1.82 9.56-5.46 13.2c-3.64 3.64-8.04 5.46-13.2 5.46h-18.65v4.66ZM1055.93 235.83l-3.54 8.58c-2.36 4.54-6 7.59-10.91 9.14-4.91 1.55-9.67 1.15-14.27-1.21-4.54-2.42-7.59-6.09-9.14-11-1.56-4.91-1.15-9.64 1.21-14.18l37.86-74.52c3.05-6.71 8.61-10.07 16.69-10.07s13.74 3.36 16.79 10.07l37.77 74.52c2.42 4.54 2.86 9.27 1.31 14.18-1.55 4.91-4.63 8.58-9.23 11-4.54 2.36-9.26 2.77-14.18 1.21-4.91-1.55-8.55-4.6-10.91-9.14l-3.54-8.58h-35.91Zm24.25-27.98-6.34-15.11-6.25 15.11h12.59ZM1146.35 247.63c-5.81-4.57-8.72-9.43-8.72-14.6s1.82-9.56 5.46-13.2c3.64-3.64 8.04-5.46 13.2-5.46 4.72 0 8.27 1.24 10.63 3.73 2.36 2.49 5.13 3.81 8.3 3.96 3.17.16 5-.62 5.5-2.33s-2.92-3.96-10.26-6.76-14.33-6.44-20.98-10.91c-6.65-4.48-9.98-11.88-9.98-22.2s3.64-19.12 10.91-26.39 15.76-10.91 25.46-10.91 17.95 2.13 25.32 6.39c7.37 4.26 11.05 8.97 11.05 14.13s-1.82 9.56-5.46 13.2c-3.64 3.64-8.04 5.46-13.2 5.46-4.73 0-7.96-1.09-9.7-3.26-1.74-2.18-3.89-3.34-6.44-3.5-2.55-.15-4.07.62-4.57 2.33s2.3 3.81 8.39 6.29c6.09 2.49 13.09 5.97 20.98 10.45 7.89 4.48 11.84 12.19 11.84 23.13 0 10.32-3.64 19.12-10.91 26.39s-16.69 10.91-28.26 10.91c-13.24 0-22.77-2.29-28.58-6.85ZM1259.8 185.47h13.99c3.61 0 6.53 1.27 8.77 3.82 2.24 2.55 3.36 5.63 3.36 9.23s-1.12 6.68-3.36 9.23c-2.24 2.55-5.16 3.82-8.77 3.82h-13.99v4.66h18.65c5.16 0 9.56 1.82 13.2 5.46 3.64 3.64 5.46 8.04 5.46 13.2s-1.82 9.56-5.46 13.2c-3.64 3.64-8.04 5.46-13.2 5.46h-37.3c-5.16 0-9.56-1.82-13.2-5.46-3.64-3.64-5.46-8.03-5.46-13.2v-72.74c0-5.16 1.82-9.56 5.46-13.2 3.64-3.64 8.04-5.46 13.2-5.46h37.3c5.16 0 9.56 1.82 13.2 5.46 3.64 3.64 5.46 8.04 5.46 13.2s-1.82 9.56-5.46 13.2c-3.64 3.64-8.04 5.46-13.2 5.46h-18.65v4.66ZM110.44 383.63c-5.81-4.57-8.72-9.43-8.72-14.6s1.82-9.56 5.46-13.2c3.64-3.64 8.03-5.46 13.2-5.46 4.72 0 8.27 1.24 10.63 3.73 2.36 2.49 5.13 3.81 8.3 3.96 3.17.16 5-.62 5.5-2.33s-2.92-3.96-10.26-6.76-14.33-6.44-20.98-10.91c-6.65-4.48-9.98-11.88-9.98-22.2s3.64-19.12 10.91-26.39 15.76-10.91 25.46-10.91 17.95 2.13 25.32 6.39c7.37 4.26 11.05 8.97 11.05 14.13s-1.82 9.56-5.46 13.2c-3.64 3.64-8.04 5.46-13.2 5.46-4.73 0-7.96-1.09-9.7-3.26-1.74-2.17-3.89-3.34-6.44-3.5-2.55-.15-4.07.62-4.57 2.33s2.3 3.81 8.39 6.29c6.09 2.49 13.09 5.97 20.98 10.45 7.9 4.48 11.84 12.19 11.84 23.13 0 10.32-3.64 19.12-10.91 26.39s-16.69 10.91-28.26 10.91c-13.24 0-22.77-2.29-28.58-6.85ZM257.47 279.5c5.16 0 9.56 1.82 13.2 5.46 3.64 3.64 5.46 8.04 5.46 13.2s-1.82 9.56-5.46 13.2c-3.64 3.64-8.04 5.46-13.2 5.46h-9.33v55.02c0 5.16-1.82 9.56-5.46 13.2-3.64 3.64-8.04 5.46-13.2 5.46s-9.56-1.82-13.2-5.46c-3.64-3.64-5.46-8.04-5.46-13.2v-55.02h-9.33c-5.16 0-9.56-1.82-13.2-5.46-3.64-3.64-5.46-8.04-5.46-13.2s1.82-9.56 5.46-13.2c3.64-3.64 8.03-5.46 13.2-5.46h55.96ZM333.01 390.48c-15.48 0-28.68-5.46-39.59-16.37-10.91-10.91-16.37-24.11-16.37-39.59s5.46-28.68 16.37-39.59c10.91-10.91 24.11-16.37 39.59-16.37s28.68 5.46 39.59 16.37c10.91 10.91 16.37 24.11 16.37 39.59s-5.46 28.68-16.37 39.59c-10.91 10.91-24.11 16.37-39.59 16.37Zm13.2-42.76c3.64-3.64 5.46-8.04 5.46-13.2s-1.82-9.56-5.46-13.2c-3.64-3.64-8.04-5.46-13.2-5.46s-9.56 1.82-13.2 5.46c-3.64 3.64-5.46 8.04-5.46 13.2s1.82 9.56 5.46 13.2c3.64 3.64 8.03 5.46 13.2 5.46s9.56-1.82 13.2-5.46ZM434.67 371.83c0 5.16-1.82 9.56-5.46 13.2-3.64 3.64-8.04 5.46-13.2 5.46s-9.56-1.82-13.2-5.46c-3.64-3.64-5.46-8.04-5.46-13.2v-73.68c0-5.16 1.82-9.56 5.46-13.2 3.64-3.64 8.03-5.46 13.2-5.46h27.98c10.32 0 19.12 3.64 26.39 10.91s10.91 16.07 10.91 26.39-3.64 19.12-10.91 26.39c-7.27 7.28-16.07 10.91-26.39 10.91h-9.33v17.72Zm3.73-47.56c2.05 0 3.81-.73 5.27-2.19 1.46-1.46 2.19-3.22 2.19-5.27s-.73-3.81-2.19-5.27c-1.46-1.46-3.22-2.19-5.27-2.19h-3.73v14.92h3.73ZM592.28 279.5c5.16 0 9.56 1.82 13.2 5.46 3.64 3.64 5.46 8.04 5.46 13.2s-1.82 9.56-5.46 13.2c-3.64 3.64-8.04 5.46-13.2 5.46h-18.65v4.66h13.99c4.23 0 7.62 1.28 10.17 3.82 2.55 2.55 3.82 5.94 3.82 10.17s-1.27 7.62-3.82 10.17-5.94 3.82-10.17 3.82h-13.99v22.38c0 5.16-1.82 9.56-5.46 13.2-3.64 3.64-8.04 5.46-13.2 5.46s-9.56-1.82-13.2-5.46c-3.64-3.64-5.46-8.04-5.46-13.2v-73.68c0-5.16 1.82-9.56 5.46-13.2 3.64-3.64 8.03-5.46 13.2-5.46h37.3ZM677.15 350.05c1.87-2.08 2.8-4.77 2.8-8.07v-44.77c0-5.16 1.82-9.56 5.46-13.2 3.64-3.64 8.04-5.46 13.2-5.46s9.56 1.82 13.2 5.46c3.64 3.64 5.46 8.04 5.46 13.2v46.63c0 12.87-4.56 23.86-13.66 32.97-9.11 9.11-20.88 13.66-35.3 13.66s-26.19-4.55-35.3-13.66c-9.11-9.11-13.66-20.1-13.66-32.97v-46.63c0-5.16 1.82-9.56 5.46-13.2 3.64-3.64 8.03-5.46 13.2-5.46s9.56 1.82 13.2 5.46c3.64 3.64 5.46 8.04 5.46 13.2v44.77c0 3.3.92 5.98 2.75 8.07 1.83 2.08 4.8 3.12 8.91 3.12s6.99-1.04 8.86-3.12ZM794.75 347.77c.75-1.12 1.62-2.18 2.61-3.17 3.6-3.61 7.99-5.41 13.15-5.41s9.56 1.82 13.2 5.46c3.64 3.64 5.46 8.04 5.46 13.2 0 1.37-.12 2.71-.37 4.01-.5 3.61-3.02 7.68-7.55 12.22-10.94 10.94-24.16 16.41-39.64 16.41s-28.6-5.46-39.54-16.37c-10.94-10.91-16.41-24.11-16.41-39.59s5.47-28.68 16.41-39.59c10.94-10.91 24.12-16.37 39.54-16.37s28.69 5.44 39.64 16.32c4.54 4.6 7.06 8.71 7.55 12.31.25 1.3.37 2.64.37 4.01 0 5.16-1.82 9.56-5.46 13.2-3.64 3.64-8.04 5.46-13.2 5.46s-9.54-1.83-13.15-5.5c-1-.93-1.87-1.96-2.61-3.08-3.61-3.61-7.99-5.41-13.15-5.41s-9.56 1.82-13.2 5.46c-3.64 3.64-5.46 8.04-5.46 13.2s1.82 9.56 5.46 13.2c3.64 3.64 8.04 5.46 13.2 5.46s9.54-1.8 13.15-5.41ZM875.79 353.36v18.47c0 5.16-1.82 9.56-5.46 13.2-3.64 3.64-8.04 5.46-13.2 5.46s-9.56-1.82-13.2-5.46c-3.64-3.64-5.46-8.04-5.46-13.2v-74.61c0-5.16 1.82-9.56 5.46-13.2 3.64-3.64 8.04-5.46 13.2-5.46s9.56 1.82 13.2 5.46c3.64 3.64 5.46 8.04 5.46 13.2v12.5l17.81-23.69c3.04-4.1 7.12-6.51 12.22-7.23 5.1-.71 9.73.45 13.9 3.5 4.1 3.11 6.51 7.21 7.23 12.31.71 5.1-.48 9.7-3.59 13.8l-17.25 23.04 21.82 29.19c3.11 4.1 4.3 8.71 3.59 13.8-.71 5.1-3.12 9.2-7.23 12.31-4.17 3.05-8.8 4.21-13.9 3.5s-9.17-3.12-12.22-7.23l-22.38-29.66ZM957.86 390.48c-5.16 0-9.56-1.82-13.2-5.46-3.64-3.64-5.46-8.04-5.46-13.2v-74.61c0-5.16 1.82-9.56 5.46-13.2 3.64-3.64 8.04-5.46 13.2-5.46s9.56 1.82 13.2 5.46c3.64 3.64 5.46 8.04 5.46 13.2v74.61c0 5.16-1.82 9.56-5.46 13.2-3.64 3.64-8.04 5.46-13.2 5.46ZM1023.15 346.83v24.99c0 5.16-1.82 9.56-5.46 13.2-3.64 3.64-8.04 5.46-13.2 5.46s-9.56-1.82-13.2-5.46c-3.64-3.64-5.46-8.04-5.46-13.2v-74.61c0-5.16 1.82-9.56 5.46-13.2 3.64-3.64 8.04-5.46 13.2-5.46s9.57 1.8 13.24 5.41l33.39 38.14v-24.9c0-5.16 1.82-9.56 5.46-13.2 3.64-3.64 8.04-5.46 13.2-5.46s9.56 1.82 13.2 5.46c3.64 3.64 5.46 8.04 5.46 13.2v74.61c0 5.16-1.82 9.56-5.46 13.2-3.64 3.64-8.04 5.46-13.2 5.46s-9.54-1.83-13.15-5.5l-33.48-38.14ZM1200.34 335.46v22.38c-.75 6.28-3.39 11.69-7.93 16.23-10.94 10.94-24.16 16.41-39.64 16.41s-28.6-5.46-39.54-16.37c-10.94-10.91-16.41-24.11-16.41-39.59s5.47-28.68 16.41-39.59c10.94-10.91 24.12-16.37 39.54-16.37s26.83 3.26 34.04 9.79c4.54 3.98 7.18 8.49 7.93 13.52 0 5.16-1.2 9.25-3.59 12.26-2.39 3.02-6.17 4.52-11.33 4.52s-9.54-.9-13.15-2.71c-4.1-1.93-8.74-2.89-13.9-2.89s-9.56 1.97-13.2 5.92c-3.64 3.95-5.46 9.12-5.46 15.53s1.82 11.58 5.46 15.53c3.64 3.95 8.04 5.92 13.2 5.92s9.61-1.18 13.34-3.54v-2.98h-7.74c-3.92 0-7.23-1.35-9.93-4.06-2.7-2.71-4.06-6.02-4.06-9.93s1.35-7.23 4.06-9.93c2.71-2.7 6.02-4.06 9.93-4.06h27.98c3.92 0 7.23 1.35 9.93 4.06 2.7 2.71 4.06 6.02 4.06 9.93ZM112.12 486.05c1.87-2.08 2.8-4.77 2.8-8.07v-44.77c0-5.16 1.82-9.56 5.46-13.2 3.64-3.64 8.03-5.46 13.2-5.46s9.56 1.82 13.2 5.46c3.64 3.64 5.46 8.04 5.46 13.2v46.63c0 12.87-4.56 23.86-13.66 32.97-9.11 9.11-20.88 13.66-35.3 13.66s-26.19-4.55-35.3-13.66c-9.11-9.11-13.66-20.1-13.66-32.97v-46.63c0-5.16 1.82-9.56 5.46-13.2 3.64-3.64 8.03-5.46 13.2-5.46s9.56 1.82 13.2 5.46c3.64 3.64 5.46 8.04 5.46 13.2v44.77c0 3.3.92 5.98 2.75 8.07 1.83 2.08 4.8 3.12 8.91 3.12s6.99-1.04 8.86-3.12ZM198.85 507.83c0 5.16-1.82 9.56-5.46 13.2-3.64 3.64-8.04 5.46-13.2 5.46s-9.56-1.82-13.2-5.46c-3.64-3.64-5.46-8.04-5.46-13.2v-73.68c0-5.16 1.82-9.56 5.46-13.2 3.64-3.64 8.03-5.46 13.2-5.46h27.98c10.32 0 19.12 3.64 26.39 10.91s10.91 16.07 10.91 26.39-3.64 19.12-10.91 26.39c-7.27 7.28-16.07 10.91-26.39 10.91h-9.33v17.72Zm3.73-47.56c2.05 0 3.81-.73 5.27-2.19 1.46-1.46 2.19-3.22 2.19-5.27s-.73-3.81-2.19-5.27c-1.46-1.46-3.22-2.19-5.27-2.19h-3.73v14.92h3.73ZM355.53 526.48c-15.48 0-28.68-5.46-39.59-16.37-10.91-10.91-16.37-24.11-16.37-39.59s5.46-28.68 16.37-39.59c10.91-10.91 24.11-16.37 39.59-16.37s28.68 5.46 39.59 16.37c10.91 10.91 16.37 24.11 16.37 39.59s-5.46 28.68-16.37 39.59c-10.91 10.91-24.11 16.37-39.59 16.37Zm13.2-42.76c3.64-3.64 5.46-8.04 5.46-13.2s-1.82-9.56-5.46-13.2c-3.64-3.64-8.04-5.46-13.2-5.46s-9.56 1.82-13.2 5.46c-3.64 3.64-5.46 8.04-5.46 13.2s1.82 9.56 5.46 13.2c3.64 3.64 8.03 5.46 13.2 5.46s9.56-1.82 13.2-5.46ZM477.71 486.05c1.87-2.08 2.8-4.77 2.8-8.07v-44.77c0-5.16 1.82-9.56 5.46-13.2 3.64-3.64 8.03-5.46 13.2-5.46s9.56 1.82 13.2 5.46c3.64 3.64 5.46 8.04 5.46 13.2v46.63c0 12.87-4.56 23.86-13.66 32.97-9.11 9.11-20.88 13.66-35.3 13.66s-26.19-4.55-35.3-13.66c-9.11-9.11-13.66-20.1-13.66-32.97v-46.63c0-5.16 1.82-9.56 5.46-13.2 3.64-3.64 8.03-5.46 13.2-5.46s9.56 1.82 13.2 5.46c3.64 3.64 5.46 8.04 5.46 13.2v44.77c0 3.3.92 5.98 2.75 8.07 1.83 2.08 4.8 3.12 8.91 3.12s6.99-1.04 8.86-3.12ZM564.44 493v14.83c0 5.16-1.82 9.56-5.46 13.2-3.64 3.64-8.04 5.46-13.2 5.46s-9.56-1.82-13.2-5.46c-3.64-3.64-5.46-8.04-5.46-13.2v-73.68c0-5.16 1.82-9.56 5.46-13.2 3.64-3.64 8.03-5.46 13.2-5.46h27.98c10.32 0 19.12 3.64 26.39 10.91s10.91 16.07 10.91 26.39-3.64 19.12-10.91 26.39c-.81.81-1.62 1.56-2.42 2.24l11.38 15.2c3.11 4.1 4.3 8.71 3.59 13.8-.72 5.1-3.12 9.2-7.23 12.31-4.17 3.05-8.8 4.21-13.9 3.5s-9.17-3.12-12.22-7.23l-14.92-26.02Zm3.73-32.73c2.05 0 3.81-.73 5.27-2.19 1.46-1.46 2.19-3.22 2.19-5.27s-.73-3.81-2.19-5.27c-1.46-1.46-3.22-2.19-5.27-2.19h-3.73v14.92h3.73ZM704.33 507.83c0 5.16-1.82 9.56-5.46 13.2-3.64 3.64-8.04 5.46-13.2 5.46s-9.56-1.82-13.2-5.46c-3.64-3.64-5.46-8.04-5.46-13.2v-73.68c0-5.16 1.82-9.56 5.46-13.2 3.64-3.64 8.04-5.46 13.2-5.46h27.98c10.32 0 19.12 3.64 26.39 10.91s10.91 16.07 10.91 26.39-3.64 19.12-10.91 26.39-16.07 10.91-26.39 10.91h-9.33v17.72Zm3.73-47.56c2.05 0 3.81-.73 5.27-2.19 1.46-1.46 2.19-3.22 2.19-5.27s-.73-3.81-2.19-5.27c-1.46-1.46-3.22-2.19-5.27-2.19h-3.73v14.92h3.73ZM778.01 525.55c-5.16 0-9.56-1.82-13.2-5.46-3.64-3.64-5.46-8.04-5.46-13.2v-73.68c0-5.16 1.82-9.56 5.46-13.2 3.64-3.64 8.04-5.46 13.2-5.46s9.56 1.82 13.2 5.46c3.64 3.64 5.46 8.04 5.46 13.2v55.02h18.65c5.16 0 9.56 1.82 13.2 5.46 3.64 3.64 5.46 8.04 5.46 13.2s-1.82 9.56-5.46 13.2c-3.64 3.64-8.04 5.46-13.2 5.46h-37.3ZM879.76 507.83l-3.54 8.58c-2.36 4.54-6 7.59-10.91 9.14-4.91 1.55-9.67 1.15-14.27-1.21-4.54-2.42-7.59-6.09-9.14-11-1.56-4.91-1.15-9.64 1.21-14.18l37.86-74.52c3.05-6.71 8.61-10.07 16.69-10.07s13.74 3.36 16.79 10.07l37.77 74.52c2.42 4.54 2.86 9.26 1.31 14.18-1.55 4.91-4.63 8.58-9.23 11-4.54 2.36-9.26 2.77-14.18 1.21-4.91-1.55-8.55-4.6-10.91-9.14l-3.54-8.58h-35.91Zm24.25-27.98-6.34-15.11-6.25 15.11h12.59ZM999.69 482.83v24.99c0 5.16-1.82 9.56-5.46 13.2-3.64 3.64-8.04 5.46-13.2 5.46s-9.56-1.82-13.2-5.46c-3.64-3.64-5.46-8.04-5.46-13.2v-74.61c0-5.16 1.82-9.56 5.46-13.2 3.64-3.64 8.04-5.46 13.2-5.46s9.57 1.8 13.24 5.41l33.39 38.14v-24.9c0-5.16 1.82-9.56 5.46-13.2 3.64-3.64 8.04-5.46 13.2-5.46s9.56 1.82 13.2 5.46c3.64 3.64 5.46 8.04 5.46 13.2v74.61c0 5.16-1.82 9.56-5.46 13.2-3.64 3.64-8.04 5.46-13.2 5.46s-9.54-1.83-13.15-5.5l-33.48-38.14ZM1111.61 457.47h13.99c3.61 0 6.53 1.28 8.77 3.82 2.24 2.55 3.36 5.63 3.36 9.23s-1.12 6.68-3.36 9.23c-2.24 2.55-5.16 3.82-8.77 3.82h-13.99v4.66h18.65c5.16 0 9.56 1.82 13.2 5.46 3.64 3.64 5.46 8.04 5.46 13.2s-1.82 9.56-5.46 13.2c-3.64 3.64-8.04 5.46-13.2 5.46h-37.3c-5.16 0-9.56-1.82-13.2-5.46-3.64-3.64-5.46-8.04-5.46-13.2v-72.74c0-5.16 1.82-9.56 5.46-13.2 3.64-3.64 8.04-5.46 13.2-5.46h37.3c5.16 0 9.56 1.82 13.2 5.46 3.64 3.64 5.46 8.04 5.46 13.2s-1.82 9.56-5.46 13.2c-3.64 3.64-8.04 5.46-13.2 5.46h-18.65v4.66ZM1230.98 415.5c5.16 0 9.56 1.82 13.2 5.46 3.64 3.64 5.46 8.04 5.46 13.2s-1.82 9.56-5.46 13.2c-3.64 3.64-8.04 5.46-13.2 5.46h-9.33v55.02c0 5.16-1.82 9.56-5.46 13.2-3.64 3.64-8.04 5.46-13.2 5.46s-9.56-1.82-13.2-5.46c-3.64-3.64-5.46-8.04-5.46-13.2v-55.02H1175c-5.16 0-9.56-1.82-13.2-5.46-3.64-3.64-5.46-8.04-5.46-13.2s1.82-9.56 5.46-13.2c3.64-3.64 8.04-5.46 13.2-5.46h55.96Z" class="st1"/></svg>